<svg width="16" height="7" viewBox="0 0 16 7" fill="none" xmlns="http://www.w3.org/2000/svg">
<path d="M15.5294 3.76489L0.470603 3.76489C0.210838 3.76489 -1.8432e-08 3.55405 -4.11414e-08 3.29429C-6.38507e-08 3.03453 0.210838 2.82373 0.470603 2.82373L15.5294 2.82373C15.7892 2.82373 16 3.03457 16 3.29433C16 3.5541 15.7892 3.76489 15.5294 3.76489Z" fill="#3A405F"/>
<path d="M15.8617 3.62549L13.0382 6.44902C12.8547 6.63255 12.5563 6.63255 12.3728 6.44902C12.1892 6.26549 12.1892 5.96713 12.3728 5.7836L14.8631 3.29325L12.3728 0.802894C12.1892 0.619365 12.1892 0.320999 12.3728 0.137469C12.465 0.0461898 12.5854 4.1931e-05 12.7059 4.19205e-05C12.8264 4.191e-05 12.9469 0.0461454 13.0382 0.136498L15.8617 2.96002C16.0452 3.1436 16.0452 3.44197 15.8617 3.62549Z" fill="#3A405F"/>
</svg>
