<svg width="15" height="15" viewBox="0 0 15 15" fill="none" xmlns="http://www.w3.org/2000/svg">
<path d="M6.31191 8.27173H5.61809C5.36635 8.27173 5.15759 8.47303 5.15759 8.72923C5.15759 8.97933 5.36021 9.18673 5.61809 9.18673H5.85755V14.0912H0.914859V9.18063H5.85755C6.10929 9.18063 5.48301 8.97933 5.48301 8.72313C5.48301 8.47303 6.10929 8.26562 5.85755 8.26562H0.460499C0.20876 8.26562 0 8.46693 0 8.72313V14.5426C0 14.7927 0.20262 15.0001 0.460499 15.0001H6.31805C6.56979 15.0001 6.77855 14.7988 6.77855 14.5426V8.72313C6.77241 8.47913 6.56979 8.27173 6.31191 8.27173Z" fill="#3A405F"/>
<path d="M5.49556 14.7073H1.66421C1.06249 14.7073 0.571289 14.2193 0.571289 13.6215V9.80895C0.571289 9.21115 1.06249 8.72314 1.66421 8.72314H5.5017C6.10342 8.72314 6.59462 9.21115 6.59462 9.80895V13.6215C6.58848 14.2193 6.09728 14.7073 5.49556 14.7073Z" fill="#3A405F"/>
<path d="M6.31191 0H0.460499C0.20262 0 0 0.201301 0 0.457503V6.27694C0 6.52704 0.20262 6.73445 0.460499 6.73445H6.31805C6.56979 6.73445 6.77855 6.53314 6.77855 6.27694V0.457503C6.77241 0.201301 6.56979 0 6.31191 0ZM5.85755 5.81944H0.914859V0.908906H5.85755V5.81944Z" fill="#3A405F"/>
<path d="M5.37289 6.16735H1.72573C1.12401 6.16735 0.632812 5.67935 0.632812 5.08154V1.45202C0.632812 0.854214 1.12401 0.366211 1.72573 0.366211H5.37903C5.98074 0.366211 6.47194 0.854214 6.47194 1.45202V5.08154C6.4658 5.67935 5.97461 6.16735 5.37289 6.16735Z" fill="#3A405F"/>
<path d="M14.5125 2H8.4875C8.21875 2 8 2.22034 8 2.5C8 2.77119 8.21875 3 8.4875 3H14.5125C14.7812 3 15 2.77966 15 2.5C15 2.22034 14.7812 2 14.5125 2Z" fill="#3A405F"/>
<path d="M14.5125 10H8.4875C8.21875 10 8 10.2203 8 10.5C8 10.7712 8.21875 11 8.4875 11H14.5125C14.7812 11 15 10.7797 15 10.5C15 10.2203 14.7812 10 14.5125 10Z" fill="#3A405F"/>
<path d="M8.60348 5H11.3965C11.7292 5 12 4.77966 12 4.5C12 4.22881 11.7292 4 11.3965 4H8.60348C8.27079 4 8 4.22034 8 4.5C8 4.77966 8.27079 5 8.60348 5Z" fill="#3A405F"/>
<path d="M8.60348 13H11.3965C11.7292 13 12 12.7797 12 12.5C12 12.2288 11.7292 12 11.3965 12H8.60348C8.27079 12 8 12.2203 8 12.5C8 12.7797 8.27079 13 8.60348 13Z" fill="#3A405F"/>
</svg>
