<svg width="26" height="25" viewBox="0 0 26 25" fill="none" xmlns="http://www.w3.org/2000/svg">
<path d="M24.843 3.03951C24.8282 3.02552 21.8858 0.219474 21.8858 0.219474C21.7733 0.111547 21.657 0 21.4398 0H9.59424C9.24825 0 8.96674 0.281461 8.96674 0.627453V2.55423L4.79179 3.2699C4.45715 3.32861 4.2321 3.64886 4.29008 3.98316L4.50197 5.2186C3.14496 5.67526 1.75174 6.146 0.406767 6.62913C0.0889555 6.74533 -0.0778272 7.09871 0.0355791 7.41843L2.711 14.8557C2.76482 15.0053 2.90586 15.0985 3.05631 15.0985C3.0975 15.0985 3.13948 15.0915 3.18048 15.0768C3.37118 15.0082 3.47016 14.798 3.40156 14.6073L0.765724 7.28002C2.03286 6.82634 3.34511 6.38231 4.62756 5.95065L5.88838 13.3013L7.33918 21.7667C7.39158 22.0655 7.65425 22.2782 7.95073 22.2782C7.98429 22.2782 8.01834 22.2754 8.05249 22.2698L11.9819 21.5955L15.0524 21.0692L10.4344 22.729L6.7927 24.0384L3.96449 16.1719C3.89594 15.9812 3.68581 15.8822 3.49506 15.9508C3.30435 16.0193 3.20538 16.2295 3.27392 16.4202L6.14225 24.3984C6.23398 24.6493 6.47166 24.8053 6.72288 24.8053C6.7923 24.8053 6.8628 24.7934 6.93149 24.7683L10.6826 23.4196L19.2 20.3582L20.8271 20.0793H24.4217C24.7676 20.0793 25.0492 19.7972 25.0492 19.4505V3.45297C25.0492 3.23335 24.93 3.12132 24.843 3.03951ZM23.8709 3.1264H22.0347L21.9892 3.1266C21.9013 3.12719 21.6955 3.1287 21.6433 3.07684C21.6313 3.06486 21.6172 3.02484 21.6172 2.95052L21.6129 0.973249L23.8709 3.1264ZM24.3153 19.3454H9.7006V12.1943C9.7006 11.9916 9.53632 11.8273 9.33367 11.8273C9.13103 11.8273 8.96674 11.9916 8.96674 12.1943V19.4504C8.96674 19.7971 9.24825 20.0792 9.59424 20.0792H16.4834L11.8578 20.8721L8.04261 21.5268L6.61168 13.1772L5.03294 3.97309L8.96669 3.29876V10.4917C8.96669 10.6943 9.13098 10.8586 9.33362 10.8586C9.53627 10.8586 9.70055 10.6943 9.70055 10.4917V0.733814H20.8785L20.8833 2.95135C20.8833 3.22014 20.9651 3.43756 21.1263 3.59764C21.374 3.84358 21.7241 3.86071 21.9415 3.86071C21.9602 3.86071 21.9779 3.86056 21.9945 3.86046L24.3153 3.86032V19.3454Z" fill="#3A405F"/>
<path d="M11.4692 5.69719C11.4692 5.89984 11.6335 6.06412 11.8362 6.06412H22.3273C22.5299 6.06412 22.6942 5.89984 22.6942 5.69719C22.6942 5.49455 22.5299 5.33026 22.3273 5.33026H11.8362C11.6335 5.33026 11.4692 5.49455 11.4692 5.69719Z" fill="#3A405F"/>
<path d="M22.3273 7.93762H11.8362C11.6335 7.93762 11.4692 8.10191 11.4692 8.30455C11.4692 8.5072 11.6335 8.67149 11.8362 8.67149H22.3273C22.5299 8.67149 22.6942 8.5072 22.6942 8.30455C22.6942 8.10191 22.5299 7.93762 22.3273 7.93762Z" fill="#3A405F"/>
<path d="M22.3273 10.5441H11.8362C11.6335 10.5441 11.4692 10.7084 11.4692 10.911C11.4692 11.1136 11.6335 11.2779 11.8362 11.2779H22.3273C22.5299 11.2779 22.6942 11.1136 22.6942 10.911C22.6942 10.7084 22.5299 10.5441 22.3273 10.5441Z" fill="#3A405F"/>
<path d="M22.3273 13.1511H11.8362C11.6335 13.1511 11.4692 13.3154 11.4692 13.5181C11.4692 13.7207 11.6335 13.885 11.8362 13.885H22.3273C22.5299 13.885 22.6942 13.7207 22.6942 13.5181C22.6942 13.3154 22.5299 13.1511 22.3273 13.1511Z" fill="#3A405F"/>
<path d="M22.3273 15.7576H11.8362C11.6335 15.7576 11.4692 15.9219 11.4692 16.1245C11.4692 16.3271 11.6335 16.4914 11.8362 16.4914H22.3273C22.5299 16.4914 22.6942 16.3271 22.6942 16.1245C22.6942 15.9219 22.5299 15.7576 22.3273 15.7576Z" fill="#3A405F"/>
</svg>
