<svg width="12" height="12" viewBox="0 0 12 12" fill="none" xmlns="http://www.w3.org/2000/svg">
<g clip-path="url(#clip0)">
<path d="M6.2746 5.99837L11.9431 0.329854C12.0187 0.254288 12.0187 0.131795 11.9431 0.0562291C11.8675 -0.0193127 11.7451 -0.0193127 11.6695 0.0562291L6.00097 5.72474L0.332455 0.0562291C0.255582 -0.0180065 0.13309 -0.0158779 0.0588302 0.0609943C-0.0135913 0.13598 -0.0135913 0.254868 0.0588302 0.329854L5.72735 5.99837L0.0588302 11.6669C-0.0180421 11.7411 -0.0201707 11.8636 0.0540891 11.9405C0.128349 12.0174 0.250841 12.0195 0.327714 11.9452C0.329334 11.9437 0.330907 11.9421 0.332455 11.9405L6.00097 6.27199L11.6695 11.9405C11.7464 12.0148 11.8689 12.0126 11.9431 11.9358C12.0156 11.8608 12.0156 11.7419 11.9431 11.6669L6.2746 5.99837Z" fill="#3A405F" stroke="#3A405F" stroke-width="0.6"/>
</g>
<defs>
<clipPath id="clip0">
<rect width="12" height="12" fill="white"/>
</clipPath>
</defs>
</svg>
