<svg width="16" height="20" viewBox="0 0 16 20" fill="none" xmlns="http://www.w3.org/2000/svg">
<path d="M15.7012 13.2271C15.8627 13.2271 16 13.0996 16 12.9323V12.2789C16 11.8406 15.6365 11.4821 15.1923 11.4821H13.0843C13.0601 11.4422 13.3024 11.6892 8.93286 7.37849C9.0944 7.03586 9.04594 6.62948 8.79556 6.32669C9.99899 5.60159 9.66784 3.8008 8.2948 3.53785V2.91633H8.73902C9.18324 2.91633 9.54669 2.55777 9.54669 2.11952V0.796813C9.54669 0.358566 9.18324 0 8.73902 0H7.2529C6.80868 0 6.44523 0.358566 6.44523 0.796813V2.11952C6.44523 2.55777 6.80868 2.91633 7.2529 2.91633H7.69712V3.8008C7.69712 3.96016 7.82635 4.09562 7.99596 4.09562C8.52095 4.09562 8.94094 4.51793 8.94094 5.02789C8.94094 5.49801 8.57749 5.89641 8.11711 5.95219C8.02827 5.94422 7.95558 5.94422 7.86673 5.95219C7.41444 5.89641 7.05098 5.49801 7.05098 5.02789C7.05098 4.86853 6.92176 4.73307 6.75215 4.73307C6.59061 4.73307 6.45331 4.86056 6.45331 5.02789C6.45331 5.57769 6.75215 6.05578 7.19637 6.32669C6.95406 6.62948 6.9056 7.03586 7.05906 7.37849C7.03483 7.40239 2.9157 11.4582 2.89955 11.4821H0.807673C0.363453 11.4821 0 11.8406 0 12.2789V19.2032C0 19.6414 0.363453 20 0.807673 20H15.1923C15.6365 20 16 19.6414 16 19.2032V12.9163C16 12.757 15.8708 12.6215 15.7012 12.6215C15.5396 12.6215 15.4023 12.749 15.4023 12.9163V19.2032C15.4023 19.3227 15.3054 19.4104 15.1923 19.4104H0.807673C0.686522 19.4104 0.597678 19.3147 0.597678 19.2032V12.2789C0.597678 12.1594 0.694599 12.0717 0.807673 12.0717H15.1923C15.3135 12.0717 15.4023 12.1673 15.4023 12.2789V12.9323C15.4023 13.0916 15.5396 13.2271 15.7012 13.2271ZM7.2529 2.32669C7.13175 2.32669 7.04291 2.23108 7.04291 2.11952V0.796813C7.04291 0.677291 7.13983 0.589641 7.2529 0.589641H8.73902C8.86017 0.589641 8.94902 0.685259 8.94902 0.796813V2.11952C8.94902 2.23904 8.85209 2.32669 8.73902 2.32669H7.2529ZM7.89904 6.54183C7.97173 6.5498 8.02827 6.5498 8.10096 6.54183C8.28672 6.58964 8.43211 6.75697 8.43211 6.95618C8.43211 7.19522 8.23826 7.38645 7.99596 7.38645C7.75366 7.38645 7.55982 7.19522 7.55982 6.95618C7.56789 6.75697 7.7052 6.58964 7.89904 6.54183ZM3.73953 11.4821L7.45482 7.81673C7.78597 8.0239 8.20596 8.0239 8.5371 7.81673L12.2524 11.4821H3.73953Z" fill="#3A405F"/>
<path d="M15.0552 19.6018H0.694772C0.484777 19.6018 0.323242 19.4424 0.323242 19.2353V12.2313C0.323242 12.0321 0.484777 11.8647 0.694772 11.8647H15.0633C15.2652 11.8647 15.4348 12.0241 15.4348 12.2313V19.2353C15.4267 19.4424 15.2652 19.6018 15.0552 19.6018Z" fill="#3A405F"/>
<path d="M8.07657 2.39065L7.9958 2.47033C7.20428 2.47033 6.54199 2.43846 6.54199 1.65758C6.54199 0.876708 7.18813 0.239258 7.97965 0.239258C8.77117 0.239258 9.41731 0.876708 9.41731 1.65758C9.40923 2.43846 8.86809 2.39065 8.07657 2.39065Z" fill="#3A405F"/>
<path d="M7.99604 7.49005C8.30828 7.49005 8.56141 7.24033 8.56141 6.93228C8.56141 6.62423 8.30828 6.37451 7.99604 6.37451C7.68379 6.37451 7.43066 6.62423 7.43066 6.93228C7.43066 7.24033 7.68379 7.49005 7.99604 7.49005Z" fill="#3A405F"/>
<path d="M2.01126 12.8926C1.78511 12.8926 1.60742 13.0201 1.60742 13.1874V18.4703C1.60742 18.6296 1.78511 18.7651 2.01126 18.7651C2.23741 18.7651 2.41509 18.6376 2.41509 18.4703V13.1874C2.41509 13.028 2.23741 12.8926 2.01126 12.8926Z" fill="white"/>
<path d="M4.56301 12.8926C4.33687 12.8926 4.15918 13.0201 4.15918 13.1874V18.4703C4.15918 18.6296 4.33687 18.7651 4.56301 18.7651C4.78916 18.7651 4.96685 18.6376 4.96685 18.4703V13.1874C4.96685 13.028 4.78916 12.8926 4.56301 12.8926Z" fill="white"/>
<path d="M7.76126 12.8926C7.53511 12.8926 7.35742 13.0201 7.35742 13.1874V18.4703C7.35742 18.6296 7.53511 18.7651 7.76126 18.7651C7.98741 18.7651 8.16509 18.6376 8.16509 18.4703V13.1874C8.16509 13.028 7.98741 12.8926 7.76126 12.8926Z" fill="white"/>
<path d="M10.9595 12.8926C10.7334 12.8926 10.5557 13.0201 10.5557 13.1874V18.4703C10.5557 18.6296 10.7334 18.7651 10.9595 18.7651C11.1856 18.7651 11.3633 18.6376 11.3633 18.4703V13.1874C11.3633 13.028 11.1856 12.8926 10.9595 12.8926Z" fill="white"/>
<path d="M14.1587 12.8926C13.9326 12.8926 13.7549 13.0201 13.7549 13.1874V18.4703C13.7549 18.6296 13.9326 18.7651 14.1587 18.7651C14.3849 18.7651 14.5626 18.6376 14.5626 18.4703V13.1874C14.5626 13.028 14.3849 12.8926 14.1587 12.8926Z" fill="white"/>
</svg>
