<svg width="16" height="16" viewBox="0 0 16 16" fill="none" xmlns="http://www.w3.org/2000/svg">
<g clip-path="url(#clip0)">
<path d="M14.7674 10.0511C14.5473 10.0511 14.3689 10.2295 14.3689 10.4496V13.9877C14.3681 14.6477 13.8334 15.1825 13.1734 15.1831H1.99241C1.33243 15.1825 0.797744 14.6477 0.796966 13.9877V3.60362C0.797744 2.94379 1.33243 2.40895 1.99241 2.40817H5.53051C5.75061 2.40817 5.92899 2.22979 5.92899 2.00969C5.92899 1.78975 5.75061 1.61121 5.53051 1.61121H1.99241C0.892539 1.61245 0.00124526 2.50375 0 3.60362V13.9878C0.00124526 15.0877 0.892539 15.979 1.99241 15.9803H13.1734C14.2733 15.979 15.1646 15.0877 15.1659 13.9878V10.4496C15.1659 10.2295 14.9875 10.0511 14.7674 10.0511Z" fill="#EB5E28"/>
<path d="M15.0081 0.585987C14.3078 -0.114315 13.1725 -0.114315 12.4722 0.585987L5.36297 7.69517C5.31424 7.74389 5.27907 7.80429 5.2607 7.8706L4.32582 11.2457C4.28737 11.3841 4.32644 11.5323 4.42793 11.6339C4.52958 11.7354 4.67776 11.7745 4.81614 11.7362L8.19126 10.8012C8.25757 10.7828 8.31797 10.7476 8.36669 10.6989L15.4757 3.58955C16.1749 2.88878 16.1749 1.75435 15.4757 1.05358L15.0081 0.585987ZM6.23122 7.95419L12.0495 2.13571L13.926 4.01216L8.10752 9.83064L6.23122 7.95419ZM5.8564 8.70632L7.35554 10.2056L5.28187 10.7801L5.8564 8.70632ZM14.9122 3.02607L14.4896 3.44868L12.613 1.57208L13.0358 1.14947C13.4248 0.760479 14.0555 0.760479 14.4445 1.14947L14.9122 1.61706C15.3006 2.00652 15.3006 2.63677 14.9122 3.02607Z" fill="#EB5E28"/>
</g>
<defs>
<clipPath id="clip0">
<rect width="16" height="16" fill="white"/>
</clipPath>
</defs>
</svg>
