<svg width="15" height="11" viewBox="0 0 15 11" fill="none" xmlns="http://www.w3.org/2000/svg">
<path d="M11.2812 5.68654C12.4159 5.68654 13.3358 4.74662 13.3358 3.58717C13.3358 2.42772 12.4159 1.48779 11.2812 1.48779C10.1464 1.48779 9.22656 2.42772 9.22656 3.58717C9.22656 4.74662 10.1464 5.68654 11.2812 5.68654Z" fill="#3A405F"/>
<path d="M4.68277 6.06641C2.09874 6.06641 0 8.21086 0 10.8512H9.37185C9.37185 8.21086 7.27311 6.06641 4.68277 6.06641Z" fill="#3A405F"/>
<path d="M11.2818 6.46533C10.3176 6.46533 9.4352 6.84528 8.77344 7.4635C9.4352 8.27492 9.87638 9.24089 10.0655 10.2713H15.0003C15.0003 8.16544 13.3365 6.46533 11.2818 6.46533Z" fill="#3A405F"/>
<path d="M4.68267 5.28064C6.10979 5.28064 7.2667 4.09853 7.2667 2.64032C7.2667 1.18211 6.10979 0 4.68267 0C3.25554 0 2.09863 1.18211 2.09863 2.64032C2.09863 4.09853 3.25554 5.28064 4.68267 5.28064Z" fill="#3A405F"/>
</svg>
