<svg width="15" height="13" viewBox="0 0 15 13" fill="none" xmlns="http://www.w3.org/2000/svg">
<path d="M2.10667 2.94667H13.3933V2.85334C13.3933 2.46 13.0733 2.14667 12.6867 2.14667H7.08C6.62 2.14667 6.18667 1.90667 5.94667 1.52L5.24 0.386667C5.08667 0.14 4.83333 0 4.55333 0H0.486667C0.22 0 0 0.22 0 0.493334V8.36001L0.76 4.06C0.873333 3.40667 1.44667 2.94 2.10667 2.94667Z" fill="#3A405F"/>
<path d="M14.8133 3.77994C14.6533 3.59327 14.4133 3.47994 14.1667 3.48661H2.1C1.7 3.47994 1.35333 3.75994 1.28 4.15327L0.0133333 11.3799C0.00666667 11.4266 0 11.4733 0 11.5199V11.6133C0 12.0066 0.32 12.3199 0.706667 12.3199H12.8933C13.2933 12.3266 13.64 12.0466 13.7133 11.6533L14.9867 4.41994C15.0267 4.19327 14.9667 3.95994 14.8133 3.77994Z" fill="#3A405F"/>
</svg>
