<svg width="15" height="15" viewBox="0 0 15 15" fill="none" xmlns="http://www.w3.org/2000/svg">
<path d="M9.37685 8.12808C9.02956 8.12808 8.74877 8.40887 8.74877 8.75616V11.2537C8.74877 11.601 8.46798 11.8818 8.12069 11.8818H6.25123V2.49754C6.25123 1.96552 5.91133 1.48522 5.40148 1.30788L5.21675 1.24877H8.12808C8.47537 1.24877 8.75616 1.52956 8.75616 1.87685V3.75369C8.75616 4.10099 9.03695 4.38177 9.38424 4.38177C9.73153 4.38177 10.0123 4.10099 10.0123 3.75369V1.87685C10.0123 0.842364 9.16995 0 8.13547 0H1.40394C1.38177 0 1.35961 0.00738916 1.33744 0.0147783C1.30788 0.0147783 1.27833 0 1.24877 0C0.561576 0 0 0.561576 0 1.24877V12.4951C0 13.0271 0.339901 13.5074 0.849754 13.6847L4.61084 14.9409C4.73645 14.9778 4.86207 15 4.99507 15C5.68227 15 6.24384 14.4384 6.24384 13.7512V13.1232H8.12808C9.16256 13.1232 10.0049 12.2808 10.0049 11.2463V8.74877C9.99754 8.40148 9.72414 8.12808 9.37685 8.12808Z" fill="#3A405F"/>
<path d="M14.8151 5.80805L12.3176 3.31051C12.1402 3.13317 11.8668 3.08144 11.6378 3.1775C11.4013 3.27356 11.2535 3.50263 11.2535 3.75386V5.63071H8.75601C8.40872 5.63071 8.12793 5.91149 8.12793 6.25879C8.12793 6.60608 8.40872 6.88687 8.75601 6.88687H11.2535V8.76372C11.2535 9.01495 11.4087 9.24401 11.6378 9.34007C11.8742 9.43613 12.1402 9.38441 12.3176 9.20707L14.8151 6.70953C15.059 6.45091 15.059 6.05189 14.8151 5.80805Z" fill="#3A405F"/>
</svg>
