<svg width="15" height="15" viewBox="0 0 15 15" fill="none" xmlns="http://www.w3.org/2000/svg">
<path d="M6.26829 0H0.457317C0.20122 0 0 0.201301 0 0.457503V6.27694C0 6.52704 0.20122 6.73445 0.457317 6.73445H6.27439C6.52439 6.73445 6.73171 6.53314 6.73171 6.27694V0.457503C6.72561 0.201301 6.52439 0 6.26829 0ZM5.81707 5.81944H0.908537V0.908906H5.81707V5.81944Z" fill="#3A405F"/>
<path d="M14.5488 0H8.73173C8.48173 0 8.27441 0.201301 8.27441 0.457503V6.27694C8.27441 6.52704 8.47563 6.73445 8.73173 6.73445H14.5488C14.7988 6.73445 15.0061 6.53314 15.0061 6.27694V0.457503C15 0.201301 14.7988 0 14.5488 0ZM14.0915 5.81944H9.18295V0.908906H14.0915V5.81944Z" fill="#3A405F"/>
<path d="M6.26829 8.27173H0.457317C0.207317 8.27173 0 8.47303 0 8.72923V14.5487C0 14.7988 0.20122 15.0062 0.457317 15.0062H6.27439C6.52439 15.0062 6.73171 14.8049 6.73171 14.5487V8.72923C6.72561 8.47913 6.52439 8.27173 6.26829 8.27173ZM5.81707 14.0912H0.908537V9.18063H5.81707V14.0912Z" fill="#3A405F"/>
<path d="M14.5488 8.27173H13.8537C13.6037 8.27173 13.3964 8.47303 13.3964 8.72923C13.3964 8.97933 13.5976 9.18673 13.8537 9.18673H14.0915V14.0912H9.18295V9.18063H14.0915C14.3415 9.18063 13.7195 8.97933 13.7195 8.72313C13.7195 8.47303 14.3415 8.26562 14.0915 8.26562H8.73173C8.48173 8.26562 8.27441 8.46693 8.27441 8.72313V14.5426C8.27441 14.7927 8.47563 15.0001 8.73173 15.0001H14.5488C14.7988 15.0001 15.0061 14.7988 15.0061 14.5426V8.72313C15 8.47913 14.7988 8.27173 14.5488 8.27173Z" fill="#3A405F"/>
<path d="M5.26255 6.22821H1.45158C0.854016 6.22821 0.366211 5.74021 0.366211 5.14241V1.63488C0.366211 1.03708 0.854016 0.555176 1.45158 0.555176H5.26255C5.86011 0.555176 6.34792 1.04318 6.34792 1.64098V5.14851C6.34182 5.74021 5.86011 6.22821 5.26255 6.22821Z" fill="#3A405F"/>
<path d="M5.26255 14.7073H1.45158C0.854016 14.7073 0.366211 14.2193 0.366211 13.6215V9.80895C0.366211 9.21115 0.854016 8.72314 1.45158 8.72314H5.26255C5.86011 8.72314 6.34792 9.21115 6.34792 9.80895V13.6215C6.34182 14.2193 5.86011 14.7073 5.26255 14.7073Z" fill="#3A405F"/>
<path d="M13.7381 14.7073H9.92716C9.3296 14.7073 8.8418 14.2193 8.8418 13.6215V9.80895C8.8418 9.21115 9.3296 8.72314 9.92716 8.72314H13.7381C14.3357 8.72314 14.8235 9.21115 14.8235 9.80895V13.6215C14.8174 14.2193 14.3357 14.7073 13.7381 14.7073Z" fill="#3A405F"/>
<path d="M13.6158 6.16711H9.98771C9.39015 6.16711 8.90234 5.6791 8.90234 5.0813V1.45177C8.90234 0.85397 9.39015 0.365967 9.98771 0.365967H13.6158C14.2133 0.365967 14.7011 0.85397 14.7011 1.45177V5.0813C14.695 5.6791 14.2133 6.16711 13.6158 6.16711Z" fill="#3A405F"/>
</svg>
