<svg width="15" height="15" viewBox="0 0 15 15" fill="none" xmlns="http://www.w3.org/2000/svg">
<path d="M7.5 0C3.36735 0 0 3.36735 0 7.5C0 11.6327 3.36735 15 7.5 15C11.6327 15 15 11.6327 15 7.5C15 3.36735 11.6257 0 7.5 0ZM7.5 1.78803C10.3525 1.78803 12.718 3.88915 13.1424 6.62338H11.6187C10.6517 6.62338 9.7333 6.23377 9.10019 5.55891C8.23052 4.63358 6.76252 4.63358 5.89286 5.55891C5.25974 6.23377 4.34137 6.62338 3.3743 6.62338H1.85761C2.282 3.88915 4.6475 1.78803 7.5 1.78803ZM7.5 9.2602C6.77644 9.2602 6.18506 8.66883 6.18506 7.94527C6.18506 7.22171 6.77644 6.63033 7.5 6.63033C8.22356 6.63033 8.81493 7.22171 8.81493 7.94527C8.81493 8.66883 8.22356 9.2602 7.5 9.2602ZM2.17764 9.58024C2.67857 9.38544 3.04035 9.25325 3.54128 9.25325C5.14147 9.25325 6.38683 10.6795 6.15028 12.2866C6.11549 12.5301 6.04592 12.7667 5.94156 12.9963C4.2231 12.5093 2.82468 11.2291 2.17764 9.58024ZM9.05844 12.9963C8.95408 12.7667 8.88451 12.5301 8.84972 12.2866C8.57143 10.4151 10.2968 8.87755 12.0849 9.32978C12.2727 9.37848 12.5093 9.45501 12.8224 9.58024C12.1684 11.2291 10.7769 12.5093 9.05844 12.9963Z" fill="#3A405F"/>
</svg>
