<svg width="15" height="14" viewBox="0 0 15 14" fill="none" xmlns="http://www.w3.org/2000/svg">
<path d="M8.51853 0.666504C4.9456 0.666504 2.04011 3.57505 2.04011 7.14798V7.16941L0.757289 5.23752C0.631762 5.0477 0.374585 4.99565 0.184764 5.12118C-0.0050573 5.24671 -0.057105 5.50388 0.0684219 5.6937L1.92989 8.4951C1.99725 8.59613 2.10441 8.66043 2.22381 8.67573C2.24218 8.67879 2.25749 8.6788 2.27586 8.6788C2.37689 8.6788 2.47486 8.64206 2.55141 8.57164L5.13848 6.24174C5.30687 6.08865 5.32218 5.82842 5.1691 5.65696C5.01602 5.48857 4.75578 5.47327 4.58433 5.62635L2.86675 7.1786V7.14798C2.86675 4.02818 5.40178 1.49314 8.51853 1.49314C11.6353 1.49314 14.1734 4.02818 14.1734 7.14798C14.1734 10.2678 11.6383 12.8028 8.52159 12.8028C7.0122 12.8028 5.59161 12.215 4.52616 11.1465C4.36389 10.9842 4.10365 10.9842 3.94139 11.1465C3.77912 11.3087 3.77912 11.569 3.94139 11.7312C5.16604 12.9559 6.79176 13.6295 8.52159 13.6295C12.0914 13.6295 15 10.724 15 7.14798C15 3.57199 12.0914 0.666504 8.51853 0.666504Z" fill="#3A405F"/>
</svg>
