<svg width="15" height="15" viewBox="0 0 15 15" fill="none" xmlns="http://www.w3.org/2000/svg">
<g clip-path="url(#clip0)">
<path d="M6.60568 0C2.96341 0 0 2.96341 0 6.60568C0 10.2482 2.96341 13.2114 6.60568 13.2114C10.2482 13.2114 13.2114 10.2482 13.2114 6.60568C13.2114 2.96341 10.2482 0 6.60568 0ZM6.60568 11.9919C3.63577 11.9919 1.21951 9.57562 1.21951 6.60571C1.21951 3.6358 3.63577 1.21951 6.60568 1.21951C9.5756 1.21951 11.9919 3.63577 11.9919 6.60568C11.9919 9.5756 9.5756 11.9919 6.60568 11.9919Z" fill="#3a3d61"/>
<path d="M14.8213 13.9592L11.3253 10.4632C11.0871 10.225 10.7013 10.225 10.4631 10.4632C10.2249 10.7012 10.2249 11.0874 10.4631 11.3254L13.959 14.8214C14.0781 14.9405 14.2341 15 14.3902 15C14.546 15 14.7021 14.9405 14.8213 14.8214C15.0595 14.5834 15.0595 14.1972 14.8213 13.9592Z" fill="#3a3d61"/>
</g>
<defs>
<clipPath id="clip0">
<rect width="15" height="15" fill="white"/>
</clipPath>
</defs>
</svg>
