<svg width="16" height="16" viewBox="0 0 16 16" fill="none" xmlns="http://www.w3.org/2000/svg">
<path d="M14.6653 6.23176L12.9077 5.80043C12.8112 5.49142 12.6889 5.19528 12.5408 4.90558L13.4356 3.41202C13.5386 3.2382 13.5129 3.01931 13.3713 2.87768L12.1223 1.62876C11.9807 1.48712 11.7618 1.46137 11.588 1.56438L10.0944 2.45923C9.80473 2.31116 9.50859 2.18884 9.19958 2.09227L8.77469 0.334764C8.72318 0.141631 8.54937 0 8.34336 0H6.58584C6.38627 0 6.20601 0.141631 6.15451 0.334764L5.72962 2.09227C5.42061 2.18884 5.12447 2.31116 4.83477 2.45923L3.34764 1.57082C3.17382 1.46781 2.95494 1.49356 2.81331 1.63519L1.56438 2.87768C1.42275 3.01931 1.397 3.2382 1.5 3.41202L2.39485 4.90558C2.24678 5.19528 2.12447 5.49142 2.0279 5.80043L0.334764 6.23176C0.141631 6.27682 0 6.45064 0 6.65665V8.41416C0 8.61373 0.141631 8.79399 0.334764 8.83906L2.0279 9.27039C2.12447 9.5794 2.24678 9.87554 2.39485 10.1652L1.5 11.6588C1.397 11.8326 1.42275 12.0515 1.56438 12.1931L2.81331 13.4421C2.95494 13.5837 3.17382 13.6094 3.34764 13.5064L4.84121 12.6116C5.13091 12.7597 5.42704 12.882 5.73606 12.9785L6.16095 14.6717C6.21245 14.8648 6.38627 15.0064 6.59228 15.0064H8.34979C8.54937 15.0064 8.72962 14.8648 8.78112 14.6717L9.20602 12.9785C9.51503 12.882 9.81117 12.7597 10.1009 12.6116L11.5944 13.5064C11.7683 13.6094 11.9871 13.5837 12.1288 13.4421L13.3777 12.1931C13.5193 12.0515 13.5451 11.8326 13.4421 11.6588L12.5472 10.1652C12.6953 9.87554 12.8176 9.5794 12.9142 9.27039L14.6717 8.83906C14.8648 8.79399 15.0065 8.62017 15.0065 8.41416V6.65665C15 6.45708 14.8584 6.27682 14.6653 6.23176ZM7.46782 9.73391C6.25752 9.73391 5.27254 8.74893 5.27254 7.53863C5.27254 6.32833 6.25752 5.33691 7.46782 5.33691C8.67812 5.33691 9.6631 6.32189 9.6631 7.53219C9.6631 8.74249 8.68456 9.73391 7.46782 9.73391Z" fill="#3A405F"/>
</svg>
