<svg width="15" height="17" viewBox="0 0 15 17" fill="none" xmlns="http://www.w3.org/2000/svg">
<path d="M13.3343 1.66571H9.84831C9.50487 0.704064 8.58615 0 7.49571 0C6.40527 0 5.49513 0.704064 5.15169 1.66571H1.66571C0.746995 1.66571 0 2.41271 0 3.33143V15C0 15.9187 0.746995 16.6657 1.66571 16.6657H13.3343C14.253 16.6657 15 15.9187 15 15V3.33143C15 2.41271 14.253 1.66571 13.3343 1.66571ZM7.49571 1.66571C7.95077 1.66571 8.32856 2.03492 8.32856 2.49857C8.32856 2.96222 7.95077 3.33143 7.49571 3.33143C7.04064 3.33143 6.66285 2.96222 6.66285 2.49857C6.66285 2.03492 7.04064 1.66571 7.49571 1.66571Z" fill="#3A405F"/>
<path d="M11.6682 6.55127H3.38261C3.01341 6.55127 2.71289 6.77451 2.71289 7.05785C2.71289 7.33261 3.01341 7.56443 3.38261 7.56443H11.6597C12.0289 7.56443 12.3294 7.34119 12.3294 7.05785C12.338 6.77451 12.0375 6.55127 11.6682 6.55127Z" fill="white"/>
<path d="M3.38261 10.0971H6.48221C6.85141 10.0971 7.15193 9.8739 7.15193 9.59056C7.15193 9.31581 6.85141 9.08398 6.48221 9.08398H3.38261C3.01341 9.08398 2.71289 9.30722 2.71289 9.59056C2.71289 9.86532 3.01341 10.0971 3.38261 10.0971Z" fill="white"/>
<path d="M6.55937 10.0971H9.65897C10.0282 10.0971 10.3287 9.8739 10.3287 9.59056C10.3287 9.31581 10.0282 9.08398 9.65897 9.08398H6.55937C6.19016 9.08398 5.88965 9.30722 5.88965 9.59056C5.88965 9.86532 6.19016 10.0971 6.55937 10.0971Z" fill="white"/>
<path d="M8.53495 10.0971H11.6345C12.0038 10.0971 12.3043 9.8739 12.3043 9.59056C12.3043 9.31581 12.0038 9.08398 11.6345 9.08398H8.53495C8.16575 9.08398 7.86523 9.30722 7.86523 9.59056C7.86523 9.86532 8.16575 10.0971 8.53495 10.0971Z" fill="white"/>
<path d="M3.38261 12.5874H6.48221C6.85141 12.5874 7.15193 12.3641 7.15193 12.0808C7.15193 11.806 6.85141 11.5742 6.48221 11.5742H3.38261C3.01341 11.5742 2.71289 11.7975 2.71289 12.0808C2.71289 12.3556 3.01341 12.5874 3.38261 12.5874Z" fill="white"/>
<path d="M4.6707 12.5874H7.7703C8.1395 12.5874 8.44002 12.3641 8.44002 12.0808C8.44002 11.806 8.1395 11.5742 7.7703 11.5742H4.6707C4.30149 11.5742 4.00098 11.7975 4.00098 12.0808C4.00098 12.3556 4.30149 12.5874 4.6707 12.5874Z" fill="white"/>
</svg>
